<svg width="198" height="198" viewBox="0 0 198 198" fill="none" xmlns="http://www.w3.org/2000/svg">
<rect x="49.5" y="22.5" width="99" height="153" rx="3.5" stroke="currentcolor" stroke-linecap="round" stroke-linejoin="bevel" stroke-dasharray="8 8"/>
<path d="M142.425 31.4907L142.688 31.0657L141.838 30.5389L141.575 30.9639L142 31.2273L142.425 31.4907ZM57.575 166.509C57.4295 166.744 57.5019 167.052 57.7366 167.198C57.9713 167.343 58.2795 167.271 58.425 167.036L58 166.773L57.575 166.509ZM139.475 34.3525L139.212 34.7776L140.062 35.3043L140.325 34.8793L139.9 34.6159L139.475 34.3525ZM136.125 41.6566L136.388 41.2316L135.538 40.7048L135.275 41.1298L135.7 41.3932L136.125 41.6566ZM131.075 47.9071L130.812 48.3321L131.662 48.8589L131.925 48.4339L131.5 48.1705L131.075 47.9071ZM127.725 55.2111L127.988 54.7861L127.138 54.2594L126.875 54.6844L127.3 54.9477L127.725 55.2111ZM122.675 61.4616L122.412 61.8866L123.262 62.4134L123.525 61.9884L123.1 61.725L122.675 61.4616ZM119.325 68.7657L119.588 68.3407L118.738 67.8139L118.475 68.2389L118.9 68.5023L119.325 68.7657ZM114.275 75.0162L114.012 75.4412L114.862 75.968L115.125 75.543L114.7 75.2796L114.275 75.0162ZM110.925 82.3202L111.188 81.8952L110.338 81.3685L110.075 81.7935L110.5 82.0568L110.925 82.3202ZM105.875 88.5707L105.612 88.9957L106.462 89.5225L106.725 89.0975L106.3 88.8341L105.875 88.5707ZM102.525 95.8748L102.788 95.4498L101.938 94.923L101.675 95.348L102.1 95.6114L102.525 95.8748ZM97.475 102.125L97.2116 102.55L98.0616 103.077L98.325 102.652L97.9 102.389L97.475 102.125ZM94.125 109.429L94.3884 109.004L93.5384 108.478L93.275 108.903L93.7 109.166L94.125 109.429ZM89.075 115.68L88.8116 116.105L89.6616 116.632L89.925 116.207L89.5 115.943L89.075 115.68ZM85.725 122.984L85.9884 122.559L85.1384 122.032L84.875 122.457L85.3 122.72L85.725 122.984ZM80.675 129.234L80.4116 129.659L81.2616 130.186L81.525 129.761L81.1 129.498L80.675 129.234ZM77.325 136.538L77.5884 136.113L76.7384 135.587L76.475 136.012L76.9 136.275L77.325 136.538ZM72.275 142.789L72.0116 143.214L72.8616 143.741L73.125 143.316L72.7 143.052L72.275 142.789ZM68.925 150.093L69.1884 149.668L68.3384 149.141L68.075 149.566L68.5 149.83L68.925 150.093ZM63.875 156.343L63.6116 156.768L64.4616 157.295L64.725 156.87L64.3 156.607L63.875 156.343ZM60.525 163.648L60.7884 163.223L59.9384 162.696L59.675 163.121L60.1 163.384L60.525 163.648ZM142 31.2273L141.575 30.9639L139.475 34.3525L139.9 34.6159L140.325 34.8793L142.425 31.4907L142 31.2273ZM135.7 41.3932L135.275 41.1298L131.075 47.9071L131.5 48.1705L131.925 48.4339L136.125 41.6566L135.7 41.3932ZM127.3 54.9477L126.875 54.6844L122.675 61.4616L123.1 61.725L123.525 61.9884L127.725 55.2111L127.3 54.9477ZM118.9 68.5023L118.475 68.2389L114.275 75.0162L114.7 75.2796L115.125 75.543L119.325 68.7657L118.9 68.5023ZM110.5 82.0568L110.075 81.7935L105.875 88.5707L106.3 88.8341L106.725 89.0975L110.925 82.3202L110.5 82.0568ZM102.1 95.6114L101.675 95.348L97.475 102.125L97.9 102.389L98.325 102.652L102.525 95.8748L102.1 95.6114ZM93.7 109.166L93.275 108.903L89.075 115.68L89.5 115.943L89.925 116.207L94.125 109.429L93.7 109.166ZM85.3 122.72L84.875 122.457L80.675 129.234L81.1 129.498L81.525 129.761L85.725 122.984L85.3 122.72ZM76.9 136.275L76.475 136.012L72.275 142.789L72.7 143.052L73.125 143.316L77.325 136.538L76.9 136.275ZM68.5 149.83L68.075 149.566L63.875 156.343L64.3 156.607L64.725 156.87L68.925 150.093L68.5 149.83ZM60.1 163.384L59.675 163.121L57.575 166.509L58 166.773L58.425 167.036L60.525 163.648L60.1 163.384Z" fill="currentcolor"/>
<path d="M58.425 30.9639L58.1616 30.5389L57.3116 31.0657L57.575 31.4907L58 31.2273L58.425 30.9639ZM141.575 167.036C141.72 167.271 142.029 167.343 142.263 167.198C142.498 167.052 142.57 166.744 142.425 166.509L142 166.773L141.575 167.036ZM59.675 34.8793L59.9384 35.3043L60.7884 34.7776L60.525 34.3525L60.1 34.6159L59.675 34.8793ZM64.725 41.1298L64.4616 40.7048L63.6116 41.2316L63.875 41.6566L64.3 41.3932L64.725 41.1298ZM68.075 48.4339L68.3384 48.8589L69.1884 48.3321L68.925 47.9071L68.5 48.1705L68.075 48.4339ZM73.125 54.6844L72.8616 54.2594L72.0116 54.7861L72.275 55.2111L72.7 54.9477L73.125 54.6844ZM76.475 61.9884L76.7384 62.4134L77.5884 61.8866L77.325 61.4616L76.9 61.725L76.475 61.9884ZM81.525 68.2389L81.2616 67.8139L80.4116 68.3407L80.675 68.7657L81.1 68.5023L81.525 68.2389ZM84.875 75.5429L85.1384 75.968L85.9884 75.4412L85.725 75.0162L85.3 75.2796L84.875 75.5429ZM89.925 81.7935L89.6616 81.3684L88.8116 81.8952L89.075 82.3202L89.5 82.0568L89.925 81.7935ZM93.275 89.0975L93.5384 89.5225L94.3884 88.9957L94.125 88.5707L93.7 88.8341L93.275 89.0975ZM98.325 95.348L98.0616 94.923L97.2116 95.4498L97.475 95.8748L97.9 95.6114L98.325 95.348ZM101.675 102.652L101.938 103.077L102.788 102.55L102.525 102.125L102.1 102.389L101.675 102.652ZM106.725 108.903L106.462 108.478L105.612 109.004L105.875 109.429L106.3 109.166L106.725 108.903ZM110.075 116.207L110.338 116.632L111.188 116.105L110.925 115.68L110.5 115.943L110.075 116.207ZM115.125 122.457L114.862 122.032L114.012 122.559L114.275 122.984L114.7 122.72L115.125 122.457ZM118.475 129.761L118.738 130.186L119.588 129.659L119.325 129.234L118.9 129.498L118.475 129.761ZM123.525 136.012L123.262 135.587L122.412 136.113L122.675 136.538L123.1 136.275L123.525 136.012ZM126.875 143.316L127.138 143.741L127.988 143.214L127.725 142.789L127.3 143.052L126.875 143.316ZM131.925 149.566L131.662 149.141L130.812 149.668L131.075 150.093L131.5 149.83L131.925 149.566ZM135.275 156.87L135.538 157.295L136.388 156.768L136.125 156.343L135.7 156.607L135.275 156.87ZM140.325 163.121L140.062 162.696L139.212 163.223L139.475 163.648L139.9 163.384L140.325 163.121ZM58 31.2273L57.575 31.4907L59.675 34.8793L60.1 34.6159L60.525 34.3525L58.425 30.9639L58 31.2273ZM64.3 41.3932L63.875 41.6566L68.075 48.4339L68.5 48.1705L68.925 47.9071L64.725 41.1298L64.3 41.3932ZM72.7 54.9477L72.275 55.2111L76.475 61.9884L76.9 61.725L77.325 61.4616L73.125 54.6844L72.7 54.9477ZM81.1 68.5023L80.675 68.7657L84.875 75.5429L85.3 75.2796L85.725 75.0162L81.525 68.2389L81.1 68.5023ZM89.5 82.0568L89.075 82.3202L93.275 89.0975L93.7 88.8341L94.125 88.5707L89.925 81.7935L89.5 82.0568ZM97.9 95.6114L97.475 95.8748L101.675 102.652L102.1 102.389L102.525 102.125L98.325 95.348L97.9 95.6114ZM106.3 109.166L105.875 109.429L110.075 116.207L110.5 115.943L110.925 115.68L106.725 108.903L106.3 109.166ZM114.7 122.72L114.275 122.984L118.475 129.761L118.9 129.498L119.325 129.234L115.125 122.457L114.7 122.72ZM123.1 136.275L122.675 136.538L126.875 143.316L127.3 143.052L127.725 142.789L123.525 136.012L123.1 136.275ZM131.5 149.83L131.075 150.093L135.275 156.87L135.7 156.607L136.125 156.343L131.925 149.566L131.5 149.83ZM139.9 163.384L139.475 163.648L141.575 167.036L142 166.773L142.425 166.509L140.325 163.121L139.9 163.384Z" fill="currentcolor"/>
</svg>
